<?xml version="1.0" standalone="no"?>
<!DOCTYPE svg PUBLIC "-//W3C//DTD SVG 20010904//EN"
 "http://www.w3.org/TR/2001/REC-SVG-20010904/DTD/svg10.dtd">
<svg version="1.0" xmlns="http://www.w3.org/2000/svg"
 width="1000.000000pt" height="668.000000pt" viewBox="0 0 1000.000000 668.000000"
 preserveAspectRatio="xMidYMid meet">
<metadata>
Created by potrace 1.16, written by Peter Selinger 2001-2019
</metadata>
<g transform="translate(0.000000,668.000000) scale(0.100000,-0.100000)"
fill="#000000" stroke="none">
<path d="M3535 5878 c-27 -4 -72 -12 -100 -17 -27 -6 -66 -13 -85 -16 -51 -9
-140 -47 -134 -57 10 -16 -7 -30 -21 -18 -16 13 -35 5 -35 -14 0 -7 -12 -18
-26 -25 -27 -12 -71 -60 -67 -72 1 -4 -17 -25 -41 -47 -24 -22 -41 -43 -38
-46 3 -4 -8 -21 -25 -39 -17 -17 -59 -90 -93 -162 -58 -120 -62 -135 -65 -210
-2 -44 -11 -119 -20 -167 -16 -86 -15 -116 7 -209 10 -42 9 -49 -10 -74 -16
-21 -22 -41 -21 -79 0 -38 3 -46 9 -31 5 11 9 37 9 57 1 37 20 65 22 31 0 -15
2 -14 11 5 6 12 19 22 29 22 9 0 20 6 22 13 3 7 6 5 6 -5 1 -10 5 -18 9 -18 5
0 15 -16 22 -36 14 -35 15 -35 21 -13 5 17 8 7 9 -31 2 -47 3 -51 10 -25 7 29
8 28 9 -11 0 -23 8 -47 16 -54 13 -11 15 -7 16 26 1 22 1 45 0 51 -1 7 3 22 9
32 5 11 12 35 14 55 8 62 27 118 52 156 20 30 24 46 20 85 -2 27 -1 43 3 36 6
-9 10 -5 13 13 3 15 1 23 -4 19 -6 -3 -5 4 1 16 7 11 9 21 7 21 -3 0 4 21 14
46 23 52 24 58 10 49 -13 -8 -13 -2 1 29 7 14 16 23 20 20 5 -3 9 4 9 14 0 14
5 19 18 16 11 -3 24 6 37 25 18 27 61 47 94 42 7 -1 10 2 7 7 -3 5 16 17 43
26 61 20 74 20 41 1 -33 -19 -24 -19 34 1 60 21 125 15 226 -21 58 -20 94 -26
162 -26 48 0 109 -6 138 -15 28 -8 59 -12 70 -9 10 3 21 1 25 -4 3 -6 33 -10
65 -9 49 1 65 -3 97 -25 72 -50 77 -68 79 -280 l1 -188 -34 33 -34 33 -112 2
c-138 2 -210 -16 -205 -50 2 -18 9 -22 33 -19 27 2 26 1 -10 -13 -22 -8 -48
-24 -57 -36 -51 -62 13 -154 112 -163 45 -5 45 -5 19 11 -17 10 -26 25 -26 40
0 22 3 23 30 17 17 -3 52 -6 78 -5 26 0 66 -6 90 -14 53 -19 50 -19 45 10 -7
40 -38 72 -91 97 -81 37 -79 57 5 53 70 -3 120 -16 120 -30 0 -8 10 -15 23
-17 24 -3 26 -13 45 -238 l8 -95 18 75 c9 41 17 98 17 127 0 28 7 59 14 70 8
10 15 38 15 63 0 25 5 63 10 85 16 66 13 204 -5 284 -23 99 -23 103 -14 128 5
15 3 35 -7 59 -8 20 -13 42 -10 49 3 8 -2 19 -10 25 -8 7 -14 23 -14 36 0 13
-22 49 -50 83 -27 33 -50 69 -50 79 0 10 -12 29 -26 43 -14 13 -33 38 -41 54
-14 30 -171 185 -186 185 -4 0 -26 8 -50 19 -101 44 -299 73 -402 59z"/>
<path d="M8865 5654 c5 -10 12 -149 16 -309 14 -536 40 -1651 40 -1721 0 -38
3 -145 6 -237 l5 -168 -35 6 c-29 6 -37 3 -46 -13 -25 -48 -1 -122 40 -122 16
0 19 7 19 53 0 41 5 56 21 70 11 10 18 25 15 33 -3 8 -6 99 -6 202 -1 103 -5
360 -10 572 -5 212 -14 653 -20 980 -11 569 -16 650 -42 667 -8 4 -9 0 -3 -13z"/>
<path d="M6633 5151 c-18 -10 -163 -58 -323 -107 l-290 -89 -36 -54 c-20 -30
-30 -52 -23 -49 8 3 169 51 359 108 190 56 348 105 351 109 4 3 9 27 12 54 5
53 0 56 -50 28z"/>
<path d="M6444 4939 c-3 -6 -22 -17 -41 -25 -18 -8 -31 -19 -28 -24 3 -4 0
-20 -6 -34 -13 -27 -9 -26 -267 -102 -65 -19 -98 -34 -106 -48 -52 -88 -107
-189 -103 -192 2 -2 167 41 365 95 317 87 365 103 388 128 20 21 24 33 18 53
-4 14 -7 48 -7 76 l0 51 -79 -24 c-83 -25 -103 -23 -94 10 8 33 -24 62 -40 36z"/>
<path d="M5880 4914 c-47 -15 -352 -105 -505 -149 -206 -59 -187 -50 -219
-106 -25 -44 -26 -50 -10 -46 11 3 87 24 169 47 83 23 241 68 352 102 159 48
203 65 211 82 6 12 21 36 32 54 12 17 20 32 18 31 -1 -1 -23 -7 -48 -15z"/>
<path d="M3365 4850 c-3 -6 -11 -7 -17 -4 -6 4 -6 -1 1 -14 9 -17 8 -21 -7
-25 -9 -2 -3 -4 14 -4 42 0 134 -23 134 -34 0 -5 -11 -9 -24 -9 -14 0 -31 -6
-38 -13 -7 -7 -41 -23 -75 -36 -71 -26 -101 -51 -62 -51 13 0 35 -3 49 -6 24
-6 24 -6 6 8 -19 15 -19 16 0 26 29 15 49 0 35 -26 -11 -21 -9 -22 84 -37 6
-1 15 -3 20 -4 6 -1 3 -6 -5 -11 -12 -8 -9 -10 13 -10 16 0 26 -4 22 -10 -3
-5 -1 -10 4 -10 6 0 11 4 11 10 0 5 6 7 13 4 16 -6 60 43 53 59 -3 9 -5 9 -5
0 -1 -7 -9 -13 -18 -13 -13 0 -11 5 10 18 15 9 27 23 27 30 0 7 5 10 10 7 6
-3 10 -2 10 2 0 18 -26 43 -65 63 l-40 20 45 -5 c25 -3 55 -7 68 -9 28 -4 40
12 15 21 -10 3 -29 14 -43 23 -14 10 -59 23 -100 29 -41 6 -89 14 -107 17 -17
2 -34 0 -38 -6z"/>
<path d="M5530 4660 c-13 -11 -29 -20 -37 -20 -8 0 -11 -4 -8 -10 3 -5 -1 -22
-9 -38 -13 -26 -27 -31 -174 -68 l-159 -39 -29 -50 c-15 -27 -43 -72 -62 -98
-18 -27 -32 -51 -29 -53 2 -2 165 39 362 91 267 70 361 99 369 112 44 74 105
193 98 193 -4 0 -65 -18 -136 -40 -71 -22 -133 -37 -138 -34 -4 3 -6 15 -2 28
9 36 -18 51 -46 26z"/>
<path d="M4770 4588 c-381 -110 -363 -104 -389 -138 -12 -18 -20 -34 -17 -38
7 -6 199 40 473 116 l171 47 4 38 c2 21 1 40 -2 41 -3 1 -111 -28 -240 -66z"/>
<path d="M6740 4576 c-19 -7 -51 -23 -70 -35 -19 -11 -43 -21 -52 -21 -10 0
-18 -4 -18 -10 0 -5 -10 -14 -21 -21 -15 -8 -19 -8 -15 0 10 15 -5 13 -26 -3
-26 -19 -31 -65 -14 -111 12 -33 15 -36 15 -15 2 57 11 66 101 108 49 23 95
48 102 56 18 17 83 33 74 17 -4 -6 -15 -11 -26 -11 -13 0 -17 -5 -13 -20 3
-12 12 -19 21 -18 9 2 17 -3 17 -9 0 -7 3 -13 8 -13 4 0 14 0 22 0 10 0 15 10
15 30 0 23 3 28 16 23 12 -4 15 -2 12 8 -3 8 -2 23 2 34 7 19 3 20 -54 22 -33
1 -77 -4 -96 -11z"/>
<path d="M6560 4565 c-25 -7 -184 -50 -355 -94 -170 -45 -327 -86 -348 -92
-26 -7 -44 -21 -57 -42 -11 -18 -20 -35 -20 -38 0 -3 129 28 287 69 200 52
296 81 317 97 29 22 100 46 223 76 42 10 50 15 41 26 -13 16 -30 16 -88 -2z"/>
<path d="M4720 4434 c-7 -8 -18 -14 -24 -14 -7 0 -18 -16 -26 -35 -15 -39 -9
-36 -195 -84 -96 -25 -100 -27 -122 -66 -13 -22 -23 -51 -23 -65 0 -14 -7 -35
-14 -46 -17 -23 -20 -24 328 63 l149 38 17 70 c9 39 20 76 24 84 6 10 -2 11
-39 5 l-47 -7 6 30 c8 35 -14 52 -34 27z"/>
<path d="M5325 4244 c-181 -46 -340 -83 -352 -84 -13 0 -29 -13 -42 -36 -12
-20 -21 -38 -19 -39 3 -3 580 136 689 165 33 9 40 17 67 73 5 10 20 14 -343
-79z"/>
<path d="M6615 4319 c-50 -16 -197 -47 -245 -53 -25 -3 -202 -44 -395 -91
-415 -101 -709 -172 -935 -223 l-165 -38 -3 -99 c-1 -55 4 -153 13 -218 8 -65
15 -145 15 -178 l0 -58 33 6 c17 3 97 18 176 34 79 16 146 29 148 29 1 0 3
-10 4 -22 1 -22 1 -22 8 2 6 21 16 26 71 37 90 17 594 114 895 173 138 27 301
59 363 71 l112 22 0 73 c0 40 -4 75 -9 78 -5 3 -12 27 -15 53 -15 112 -18 123
-32 123 -8 0 -14 5 -14 10 0 6 11 10 25 10 14 0 25 4 25 10 0 5 -6 7 -14 4
-14 -6 -30 22 -20 37 3 5 0 9 -5 9 -6 0 -11 -12 -11 -27 0 -20 -3 -24 -11 -16
-9 9 -9 20 1 42 7 17 16 31 20 31 15 0 21 50 14 115 -4 36 -10 65 -13 64 -3 0
-19 -5 -36 -10z m30 -506 c3 -21 8 -48 10 -59 5 -21 -4 -24 -153 -52 -86 -17
-158 -29 -160 -27 -2 2 -6 28 -9 58 l-6 56 39 7 c22 3 89 17 149 29 61 13 113
23 117 24 4 1 10 -16 13 -36z"/>
<path d="M4513 4040 c-242 -60 -263 -67 -263 -87 0 -12 -6 -24 -12 -27 -7 -3
-4 -4 7 -1 256 60 530 127 533 129 2 3 2 15 0 28 l-3 24 -262 -66z"/>
<path d="M3765 4090 c2 -4 -8 -5 -23 -3 -19 3 -23 2 -14 -5 8 -5 44 -10 80
-11 99 -2 117 -6 120 -24 2 -9 8 -17 13 -17 13 0 11 -17 -5 -32 -31 -30 -55
-46 -73 -51 -10 -3 11 -5 47 -5 62 0 67 2 101 39 20 20 44 51 52 68 l15 30
-41 6 c-63 9 -277 13 -272 5z"/>
<path d="M4498 3822 c-148 -36 -268 -69 -268 -73 0 -4 21 -1 47 7 64 19 80 11
18 -10 -51 -17 -42 -17 58 0 20 4 37 3 37 -2 0 -5 25 -7 55 -6 32 2 62 -1 69
-7 11 -9 15 -6 20 11 6 21 7 22 17 5 8 -14 19 -17 62 -12 l52 6 -40 -21 c-22
-11 -48 -19 -58 -16 -9 2 -15 0 -11 -5 3 -5 -4 -9 -15 -9 -24 0 -26 -5 -9 -24
8 -8 29 -12 58 -9 52 4 44 -2 -65 -38 -79 -27 -79 -27 -37 -28 51 -1 48 -16
-5 -26 -23 -4 -32 -9 -24 -14 7 -5 23 -6 35 -4 21 4 24 0 28 -32 4 -34 -11
-63 -20 -37 -4 12 -56 -35 -64 -57 -6 -20 -38 -23 -38 -3 0 25 -7 10 -14 -32
-6 -33 -5 -38 6 -28 14 11 38 3 41 -14 1 -5 12 -8 25 -6 12 1 22 -2 22 -8 0
-5 -10 -10 -22 -10 -13 -1 -36 -7 -53 -15 -16 -8 -21 -13 -10 -11 11 3 107 21
213 42 l192 36 -1 47 c0 25 -5 71 -10 101 -5 30 -9 62 -10 70 -1 45 -12 89
-20 84 -5 -3 -9 0 -9 5 0 6 3 11 8 11 4 0 8 45 9 100 2 55 2 100 0 99 -1 0
-122 -30 -269 -67z"/>
<path d="M2894 3727 c-13 -29 -7 -48 12 -40 10 3 12 0 9 -10 -4 -8 4 -22 17
-33 41 -33 42 -43 4 -61 -19 -9 -33 -20 -30 -25 3 -4 1 -8 -5 -8 -5 0 -13 5
-16 10 -3 6 -1 10 4 10 13 0 15 36 3 44 -11 7 -72 -31 -72 -45 0 -6 9 -13 20
-16 24 -6 25 -16 5 -33 -15 -13 -27 -10 -61 15 -19 14 -21 14 -21 -2 0 -10 9
-28 20 -40 14 -16 16 -23 7 -23 -7 0 -11 -3 -8 -6 4 -3 16 0 28 6 12 7 20 8
16 2 -5 -9 42 -27 50 -19 2 2 -5 13 -16 24 -28 30 -5 48 44 35 19 -6 36 -7 38
-4 2 4 18 17 36 30 25 18 36 20 52 12 31 -17 24 -26 -32 -45 -29 -9 -62 -25
-73 -35 -11 -10 -30 -21 -42 -25 -30 -8 -29 -19 4 -45 23 -18 25 -23 13 -31
-12 -8 -10 -9 6 -4 15 4 24 0 28 -10 3 -9 2 -14 -3 -11 -5 3 -20 0 -35 -7 -18
-10 -22 -17 -14 -25 8 -8 16 -7 29 1 16 10 24 7 50 -20 17 -17 28 -36 25 -42
-11 -17 -29 -13 -22 4 3 9 0 15 -9 15 -7 0 -21 8 -31 17 -16 16 -19 15 -50
-22 -19 -22 -39 -39 -46 -37 -8 2 -8 -1 -1 -10 18 -23 -21 -88 -52 -88 -39 0
-45 19 -26 71 10 26 17 50 15 52 -2 2 9 18 26 36 26 27 34 30 51 20 11 -6 23
-8 26 -6 2 3 -5 8 -17 12 -16 5 -18 10 -10 20 8 9 8 15 0 20 -11 7 -82 -54
-75 -65 3 -4 -5 -16 -16 -26 -11 -10 -17 -24 -14 -32 6 -17 -23 -54 -36 -46
-5 3 -6 -2 -3 -10 7 -19 -6 -20 -60 -5 l-38 11 23 26 c13 14 16 20 7 13 -19
-14 -24 -5 -9 17 4 7 14 12 21 10 8 -2 16 5 18 16 2 11 0 16 -7 12 -6 -4 -11
0 -11 9 0 9 6 15 13 13 13 -3 67 35 67 47 0 3 -5 3 -12 -1 -7 -4 -8 -3 -4 4 4
6 12 9 19 6 7 -2 22 5 33 17 19 22 19 22 -1 16 -18 -7 -19 -6 -3 6 18 15 14
27 -9 27 -13 0 -28 -12 -76 -56 -12 -11 -30 -23 -39 -27 -31 -11 1 39 35 56
18 9 25 16 17 16 -15 0 -73 -31 -148 -81 -23 -16 -51 -28 -61 -28 -14 0 -19
-5 -15 -14 6 -16 -24 -36 -55 -36 -15 0 -19 5 -14 16 5 14 3 15 -17 4 -16 -9
-19 -14 -10 -20 8 -5 1 -12 -24 -21 -20 -7 -36 -17 -36 -22 0 -4 -4 -5 -10 -2
-5 3 -10 2 -10 -2 0 -5 -16 -15 -36 -22 -29 -10 -38 -11 -44 -1 -9 15 -30 4
-30 -16 0 -8 -21 -24 -47 -37 -27 -12 -53 -28 -59 -36 -6 -8 -15 -11 -20 -8
-6 3 -15 -3 -22 -14 -7 -10 -11 -19 -10 -19 2 0 25 7 52 15 57 17 80 19 71 5
-11 -17 11 -11 39 11 14 11 34 19 44 16 14 -3 11 -6 -11 -17 -20 -10 -24 -16
-15 -22 8 -5 -9 -7 -40 -6 -43 1 -57 -3 -77 -22 -14 -13 -32 -25 -41 -26 -9
-1 -19 -6 -22 -10 -4 -4 0 -5 10 -1 10 4 18 -1 21 -14 6 -23 -12 -37 -24 -18
-7 12 -9 12 -9 0 0 -11 -11 -12 -50 -8 -28 3 -61 2 -73 -3 -23 -9 -45 -16 -62
-20 -27 -6 -48 -24 -60 -53 -11 -25 -14 -27 -15 -12 -1 16 -4 14 -12 -7 -5
-16 -14 -28 -20 -28 -6 0 -8 -7 -4 -15 3 -10 -5 -20 -24 -30 -17 -9 -30 -21
-30 -27 0 -7 -6 -4 -13 7 -19 25 -35 12 -29 -23 3 -24 -2 -33 -27 -51 -17 -13
-28 -28 -25 -36 5 -11 11 -11 40 1 19 8 34 11 34 7 -1 -12 -23 -37 -44 -48
-10 -6 -18 -14 -17 -19 1 -4 -5 -13 -15 -20 -9 -7 -15 -19 -12 -26 2 -8 25 8
62 43 32 32 65 61 73 66 19 10 8 32 -12 24 -20 -7 -19 7 3 24 47 38 67 47 98
45 19 -2 34 2 34 7 0 18 55 41 71 30 12 -8 12 -10 -1 -19 -8 -6 -26 -13 -39
-17 -48 -12 -108 -63 -169 -143 -13 -16 -28 -30 -33 -30 -11 0 -33 -22 -80
-80 -47 -60 -51 -67 -33 -67 9 0 19 10 24 21 10 28 46 59 59 52 12 -8 68 38
68 56 0 22 34 68 46 61 6 -4 8 0 4 10 -4 10 -2 16 6 14 7 -1 11 6 9 16 -3 15
9 22 31 18 5 -1 6 3 3 8 -7 11 32 41 54 41 8 0 26 9 40 20 14 11 33 20 43 20
9 0 17 4 17 8 0 5 16 13 37 18 21 5 37 16 39 26 1 9 7 24 13 35 8 14 10 15 11
3 0 -9 -3 -20 -7 -26 -5 -5 0 -1 10 9 20 22 24 62 5 51 -8 -4 -9 -3 -5 2 5 5
16 9 25 9 11 0 16 7 14 18 -3 15 5 17 57 15 55 -2 82 5 70 17 -8 8 -62 8 -98
0 -27 -6 -33 -5 -29 6 4 11 25 13 96 10 95 -3 127 11 51 23 -57 9 -37 32 26
29 56 -2 61 -6 40 -26 -19 -20 -19 -37 0 -37 17 0 39 -36 30 -50 -3 -6 1 -10
9 -10 9 0 23 -12 33 -27 10 -16 23 -34 30 -41 16 -17 16 -34 1 -51 -11 -11 -9
-13 9 -8 20 4 28 -5 68 -81 25 -48 45 -93 45 -100 0 -8 7 -27 15 -43 8 -16 22
-42 30 -58 8 -16 15 -35 15 -43 0 -8 9 -31 20 -53 14 -28 17 -42 9 -50 -13
-13 -38 18 -46 58 -5 27 -23 38 -23 15 0 -6 -10 -23 -22 -36 -16 -17 -19 -26
-10 -29 13 -5 7 -23 -9 -23 -6 0 -8 4 -4 9 3 6 -3 9 -13 8 -11 0 -19 -8 -18
-16 1 -8 -13 -24 -31 -35 -18 -12 -32 -26 -33 -32 0 -6 -14 -24 -32 -39 -19
-17 -27 -30 -20 -33 7 -2 9 -8 6 -14 -4 -7 -9 -6 -14 2 -7 11 -106 -84 -160
-152 -27 -35 -37 -35 -73 -1 -23 23 -27 25 -22 8 5 -15 4 -16 -3 -6 -6 8 -12
9 -16 3 -3 -5 3 -17 13 -26 15 -13 20 -14 24 -4 3 10 7 10 17 1 17 -16 3 -37
-89 -132 -39 -40 -71 -75 -71 -77 0 -2 7 -1 15 2 8 4 15 1 15 -5 0 -16 -17
-14 -51 6 -21 13 -32 14 -40 6 -15 -15 -1 -36 20 -29 9 4 -22 -30 -69 -73 -79
-74 -86 -79 -100 -63 -16 17 -61 53 -48 38 4 -5 2 -16 -5 -25 -10 -14 -10 -14
4 -3 14 10 18 10 23 -4 4 -10 1 -21 -6 -26 -7 -4 -9 -8 -5 -8 5 0 1 -7 -7 -15
-13 -14 -22 -14 -56 -4 -22 7 -40 14 -40 16 0 10 54 53 66 53 8 0 14 4 14 9 0
16 64 72 77 67 7 -3 12 0 10 7 -1 7 4 11 11 9 8 -1 11 2 8 7 -7 11 54 72 65
66 4 -3 12 9 18 26 8 22 15 29 26 25 10 -3 13 -2 10 5 -9 13 221 243 235 234
5 -3 7 0 5 7 -3 8 25 45 65 86 38 40 70 76 70 79 0 8 148 153 155 153 3 0 4
-5 2 -11 -1 -6 6 -13 15 -14 15 -3 16 0 7 17 -8 15 -7 24 7 39 10 11 24 17 31
15 7 -3 13 1 13 9 0 8 -5 15 -11 15 -7 0 -9 9 -6 21 4 14 -1 23 -16 30 -26 12
-132 183 -122 198 3 6 1 11 -5 11 -6 0 -8 5 -5 10 3 6 -1 10 -9 10 -8 0 -20 9
-26 21 -7 11 -17 18 -25 16 -7 -3 -18 6 -25 19 -12 21 -11 26 6 39 19 15 18
16 -25 20 -13 1 -26 7 -30 13 -10 17 -59 2 -65 -21 -7 -29 0 -33 23 -13 11 10
28 16 38 14 15 -3 14 -8 -15 -37 -17 -18 -29 -37 -26 -43 3 -5 19 5 35 23 16
18 32 29 36 25 10 -9 -117 -122 -134 -118 -7 2 -12 -2 -11 -8 2 -5 -15 -26
-37 -46 l-40 -36 37 26 c52 37 60 32 13 -9 -22 -19 -46 -33 -53 -30 -13 5 -96
-74 -87 -83 2 -3 23 15 46 39 32 35 37 38 23 14 -16 -27 -80 -95 -89 -95 -3 0
-2 6 1 14 4 10 -3 13 -25 12 -22 0 -27 -4 -19 -13 7 -9 -16 -37 -86 -104 -53
-50 -96 -96 -96 -101 0 -5 5 -6 10 -3 16 10 12 -11 -5 -25 -11 -9 -15 -9 -15
-1 0 7 -5 9 -11 5 -8 -4 -7 -9 2 -15 21 -13 -6 -62 -30 -54 -22 7 -40 -13 -22
-24 18 -11 -32 -53 -54 -45 -14 6 -16 3 -10 -14 4 -13 2 -22 -4 -22 -6 0 -11
4 -11 10 0 6 -10 5 -25 -2 -14 -6 -24 -16 -23 -23 2 -6 -30 -47 -69 -90 -40
-43 -73 -75 -73 -70 0 5 30 40 67 77 37 38 63 68 57 68 -14 0 -174 -167 -174
-181 0 -6 5 -7 10 -4 18 11 10 -7 -21 -46 -17 -21 -35 -39 -41 -39 -6 0 -4 7
3 17 13 15 12 15 -8 2 -27 -16 -41 -44 -18 -35 13 5 14 2 4 -17 -21 -38 -40
-52 -49 -37 -6 9 -11 7 -21 -11 -12 -23 -11 -23 6 -9 16 13 18 13 13 0 -3 -8
-13 -15 -24 -16 -10 0 -42 -11 -70 -24 -36 -16 -54 -31 -61 -51 -9 -23 -8 -29
2 -29 7 0 15 -6 18 -14 7 -17 -21 -58 -34 -51 -5 4 -18 0 -30 -8 -13 -10 -17
-17 -9 -22 7 -4 2 -17 -15 -37 -14 -16 -25 -34 -25 -39 0 -6 -3 -8 -7 -6 -5 3
-17 1 -28 -4 -19 -8 -19 -8 3 -15 23 -7 29 -19 12 -29 -17 -10 -11 -25 9 -25
10 0 22 7 25 15 7 19 81 18 97 -2 16 -19 1 -34 -29 -28 -15 3 -21 2 -14 -1 6
-3 12 -12 12 -19 0 -7 6 -16 13 -19 9 -3 7 -9 -6 -19 -16 -13 -16 -15 -2 -21
9 -3 13 -11 9 -17 -3 -6 0 -22 7 -36 19 -35 2 -56 -52 -65 -24 -4 -51 -11 -59
-14 -8 -4 -18 -7 -21 -6 -4 1 -15 -8 -25 -19 -18 -20 -18 -21 0 -35 18 -12 18
-15 3 -38 -11 -16 -23 -23 -35 -19 -10 2 -24 -3 -31 -11 -8 -10 -29 -16 -52
-16 -29 0 -39 -4 -39 -16 0 -8 5 -12 10 -9 6 3 10 1 10 -5 0 -7 -7 -9 -16 -6
-10 4 -18 0 -21 -13 -3 -11 -12 -22 -20 -25 -8 -3 -11 -1 -8 4 4 6 -10 10 -34
10 -22 0 -42 -4 -46 -10 -3 -5 -12 -7 -19 -4 -34 13 -81 -171 -50 -197 12 -10
20 -8 42 9 43 34 152 95 159 88 3 -3 13 0 21 6 8 7 40 13 71 14 31 0 63 4 71
7 8 3 29 10 45 15 162 56 405 161 405 176 0 2 -11 3 -25 2 -14 0 -25 -5 -25
-9 0 -4 -6 -2 -14 5 -7 7 -11 19 -8 27 4 10 1 12 -7 7 -9 -6 -9 -3 1 13 16 25
27 26 72 4 28 -13 33 -19 25 -30 -9 -9 -8 -13 0 -13 23 0 71 31 71 45 0 8 5
15 10 15 6 0 10 10 10 23 0 13 6 31 13 41 13 18 16 18 65 2 l52 -18 77 43 c43
24 95 52 116 64 43 23 126 87 127 97 0 3 -15 2 -32 -2 -18 -5 -45 -8 -60 -6
-15 2 -26 -1 -25 -6 1 -6 -29 -20 -68 -33 -78 -26 -149 -83 -138 -112 5 -14 0
-15 -37 -9 -25 4 -47 9 -49 12 -3 3 2 19 12 36 13 22 15 33 7 38 -8 5 -7 12 5
23 24 24 28 58 7 50 -23 -9 -42 -35 -37 -50 3 -8 -4 -13 -17 -13 -17 0 -19 -3
-10 -12 33 -33 -9 -79 -65 -73 l-38 5 42 -13 c41 -12 41 -12 27 -39 -8 -16
-19 -28 -24 -28 -6 0 -9 -6 -8 -13 4 -15 -37 -10 -72 9 l-25 13 25 1 c18 0 21
3 11 9 -11 7 -11 13 2 37 8 16 21 44 27 62 11 27 17 32 49 33 30 2 31 3 9 6
-30 5 -36 21 -15 42 10 11 9 14 -1 18 -10 4 -10 10 2 28 12 18 12 25 3 28 -9
3 -9 8 2 18 10 11 15 11 18 2 3 -7 9 -13 15 -13 6 0 8 6 5 14 -3 8 2 16 13 19
17 4 187 -27 197 -37 3 -2 -16 -8 -41 -11 -25 -4 -51 -14 -57 -21 -18 -22 -8
-24 36 -6 45 17 89 19 188 7 48 -6 67 -5 67 4 0 6 -8 11 -17 11 -14 0 -13 4 7
25 12 13 25 24 29 23 20 -2 29 4 25 20 -3 10 13 37 41 70 26 28 42 52 37 52
-5 0 -30 -24 -56 -52 -25 -29 -46 -48 -46 -41 0 7 22 34 49 61 l48 48 69 -7
c38 -5 75 -8 82 -8 7 -1 -4 -16 -25 -33 -21 -18 -40 -37 -42 -43 -2 -5 -17
-23 -33 -39 -16 -15 -27 -33 -25 -39 2 -6 18 4 35 21 18 18 35 32 37 32 2 0
25 21 50 46 37 36 51 45 70 40 18 -5 31 3 61 34 21 22 44 38 52 35 7 -2 11 -1
7 4 -3 5 7 23 21 40 22 27 29 30 43 19 13 -10 14 -10 4 1 -6 7 -9 20 -6 29 4
10 2 13 -5 8 -7 -4 -12 -2 -12 3 0 6 2 11 5 11 13 0 61 -26 68 -37 10 -16 43
-17 52 -2 4 6 0 9 -11 7 -11 -2 -19 3 -19 12 -1 8 -6 14 -11 13 -6 -1 -11 6
-11 15 -1 21 47 73 59 66 5 -3 7 -2 6 3 -3 9 62 103 72 103 3 0 12 -6 19 -13
11 -10 13 -9 8 5 -4 12 -2 15 8 12 8 -3 11 -13 8 -22 -4 -14 -3 -15 6 -2 7 10
6 19 -5 31 -7 8 -14 21 -14 28 0 7 -4 9 -10 6 -5 -3 -10 -2 -10 4 0 5 5 13 10
16 6 3 10 1 10 -4 0 -22 18 -10 46 32 15 23 29 49 29 57 1 8 5 34 9 57 6 35 3
49 -20 89 -18 31 -23 45 -13 42 8 -2 22 -20 32 -39 l19 -34 -6 54 c-3 30 -11
61 -19 70 -22 28 -59 102 -53 108 3 3 -4 17 -14 31 -23 28 -26 58 -7 65 7 3 5
6 -5 6 -23 1 -23 20 -1 36 14 11 13 13 -14 22 -20 7 -34 22 -43 44 -41 109
-106 214 -187 307 -39 44 -39 46 -11 66 27 19 59 21 55 4 -1 -7 6 -12 15 -10
19 3 33 -15 33 -43 0 -12 7 -20 17 -20 10 0 25 -10 33 -23 10 -14 12 -22 5
-22 -7 0 -10 -6 -7 -12 2 -7 11 -12 21 -10 9 2 16 -2 16 -8 0 -6 -4 -9 -10 -5
-5 3 -8 -7 -7 -24 1 -16 5 -27 9 -25 4 3 30 -44 59 -103 28 -59 56 -115 60
-123 5 -8 16 -30 25 -47 19 -38 28 -43 19 -10 -6 21 -6 21 9 3 18 -22 22 -51
6 -41 -15 10 -12 -31 4 -44 11 -9 15 -9 18 1 3 7 10 -3 16 -21 10 -28 10 -31
-2 -22 -12 10 -13 8 -9 -9 12 -46 44 -24 45 32 1 18 7 38 14 43 11 9 34 86 56
185 5 25 13 58 19 75 6 19 5 49 -3 87 -15 72 -2 106 43 115 24 4 29 10 26 24
-7 25 5 24 28 -1 11 -12 13 -20 6 -20 -7 0 -9 -4 -6 -10 3 -5 14 -10 24 -10
20 0 47 -43 37 -58 -4 -6 -1 -14 6 -19 7 -4 14 -15 15 -23 1 -8 7 -33 12 -55
16 -61 13 -143 -8 -226 -29 -113 -32 -139 -19 -139 7 0 4 -6 -5 -13 -40 -29
-8 -210 40 -228 17 -6 33 -4 53 6 16 8 39 15 52 15 13 0 41 7 63 15 48 17 198
20 227 4 11 -6 46 -31 78 -55 47 -36 58 -50 63 -81 14 -85 -40 -113 -250 -127
-12 0 -26 -9 -32 -19 -16 -25 9 -33 47 -13 16 8 64 19 107 25 70 8 83 7 117
-10 45 -23 58 -45 58 -96 0 -31 -7 -46 -30 -68 -32 -31 -123 -64 -180 -66 -53
-2 -85 -13 -88 -32 -4 -21 19 -22 56 -3 36 18 151 49 181 48 33 0 58 -30 66
-78 5 -35 2 -46 -19 -71 -14 -17 -26 -37 -26 -44 0 -20 -114 -68 -199 -85 -69
-13 -161 -55 -161 -72 0 -4 9 -13 20 -20 24 -14 46 -6 96 37 16 15 65 39 108
55 l78 27 24 -27 c26 -27 26 -54 0 -54 -19 0 -27 -25 -13 -40 9 -10 7 -11 -13
-6 l-25 7 23 -20 c23 -20 21 -56 -4 -47 -9 4 -12 -7 -8 -45 l4 -50 -29 28
c-28 28 -33 55 -5 32 18 -14 18 -8 0 26 -12 24 -15 25 -20 8 -9 -27 -106 -103
-158 -123 -25 -9 -71 -17 -101 -17 -35 0 -66 -6 -81 -17 -16 -10 -48 -16 -88
-17 -42 0 -56 -3 -43 -8 11 -5 26 -6 33 -4 6 3 12 2 12 -1 0 -12 -54 -28 -105
-32 -27 -2 -131 -4 -230 -5 -177 -1 -181 -2 -265 -34 -47 -18 -105 -45 -130
-59 -25 -14 -58 -31 -73 -37 -18 -7 -26 -17 -23 -26 3 -8 -3 -17 -16 -22 -19
-7 -18 -9 16 -25 20 -9 36 -22 36 -28 0 -6 9 -8 20 -5 37 10 20 -12 -25 -32
-25 -11 -45 -25 -45 -31 0 -8 -12 -10 -32 -6 -22 4 -27 3 -14 -2 18 -8 18 -9
2 -15 -25 -10 -34 -1 -28 29 4 24 3 25 -28 21 -36 -6 -51 -17 -32 -24 6 -3 12
-14 12 -24 0 -11 4 -18 9 -15 5 3 15 -2 22 -11 15 -17 11 -17 -51 3 -15 5 -28
-6 -87 -68 -12 -13 -34 -32 -49 -42 -30 -21 -18 -34 15 -16 12 6 21 8 21 4 0
-13 -35 -33 -60 -34 -43 -1 -70 -12 -70 -29 0 -13 -53 -71 -66 -71 -10 0 -96
-65 -101 -76 -3 -8 -11 -14 -17 -14 -7 0 -23 -11 -36 -25 -13 -14 -29 -25 -36
-25 -7 0 -17 -6 -21 -14 -4 -8 -14 -16 -22 -18 -12 -3 -24 -11 -81 -60 -11
-10 -24 -18 -28 -18 -5 0 -32 -22 -61 -50 -29 -27 -56 -50 -61 -50 -4 0 -20
-14 -33 -30 -14 -17 -30 -30 -36 -30 -6 0 -11 -4 -11 -10 0 -6 82 -10 226 -10
219 0 225 1 219 19 -4 15 2 25 22 38 33 21 43 33 43 53 0 10 -5 8 -15 -7 -8
-11 -24 -23 -35 -26 -16 -4 -20 0 -20 18 0 28 21 47 55 49 21 1 28 8 36 38 9
37 25 55 36 44 3 -3 1 -12 -6 -20 -7 -8 -8 -15 -2 -18 5 -2 3 -18 -6 -38 -8
-19 -17 -48 -18 -64 -2 -17 -11 -36 -21 -43 -11 -8 -13 -13 -5 -13 8 0 11 -6
7 -15 -5 -14 52 -15 502 -15 279 0 518 3 531 7 l24 6 -32 27 -33 26 26 12 c14
6 25 8 24 4 -1 -4 4 -24 12 -45 l14 -37 118 0 119 0 -3 28 c-3 26 -1 27 45 30
46 3 47 3 47 -27 0 -21 5 -31 15 -31 9 0 15 9 15 25 0 27 12 30 69 19 22 -5
31 -12 32 -28 1 -19 2 -18 8 4 7 25 7 25 13 3 l6 -23 647 0 648 0 -7 42 c-10
62 -19 258 -11 258 3 0 18 -6 33 -14 15 -7 42 -17 60 -21 l34 -7 -6 47 c-4 26
-16 74 -27 106 -11 32 -22 71 -24 86 -4 26 -10 56 -35 168 -10 46 6 116 25
109 9 -4 14 25 18 103 4 59 12 143 18 186 13 77 12 77 -13 105 -21 21 -27 41
-31 92 -10 116 -23 157 -74 247 -51 87 -109 218 -94 208 5 -2 15 -19 22 -37
l14 -33 7 45 c10 67 9 121 -3 163 -9 32 -13 36 -25 26 -18 -15 -26 -7 -26 26
0 14 -4 25 -9 25 -14 0 -11 17 7 34 18 19 11 51 -18 83 -14 15 -19 30 -14 46
4 16 -4 42 -25 81 -17 31 -32 56 -34 56 -1 0 1 -15 5 -32 5 -18 11 -44 15 -58
3 -14 -7 1 -24 33 -17 31 -28 64 -25 72 5 11 2 14 -12 8 -18 -6 -18 -5 -2 13
15 18 15 23 -12 79 -20 43 -46 76 -93 119 l-66 58 16 34 c9 18 19 31 23 29 4
-2 51 2 106 11 390 58 1312 182 1619 219 221 26 1191 161 1233 172 14 3 22 1
22 -8 0 -8 12 -22 25 -32 25 -18 25 -18 42 20 18 37 19 38 101 49 46 7 86 14
88 17 3 3 -10 14 -29 26 -32 19 -37 20 -93 6 -32 -8 -176 -30 -319 -50 -532
-73 -2494 -364 -2768 -410 l-28 -5 7 49 c5 37 2 59 -13 92 -11 25 -23 62 -27
82 -4 24 -11 35 -18 31 -8 -5 -9 -1 -3 12 17 41 18 67 4 62 -8 -3 -13 -10 -12
-16 1 -5 -13 -12 -32 -14 -38 -4 -55 15 -27 31 16 10 16 10 0 11 -11 0 -18 8
-18 19 0 11 8 22 18 24 15 4 15 5 -2 6 -16 1 -17 3 -5 18 11 13 11 17 2 20 -7
3 -13 10 -13 17 0 7 -16 35 -36 61 -41 53 -44 52 -64 -34 -8 -32 -15 -48 -20
-41 -5 8 -10 2 -15 -19 -4 -20 -11 -29 -18 -24 -7 4 -17 8 -23 8 -5 0 -24 16
-42 36 -23 27 -28 39 -20 47 7 7 9 15 5 19 -4 3 -14 -2 -21 -13 -14 -19 -14
-19 -13 1 2 14 -5 20 -23 21 -13 1 -26 7 -28 13 -2 6 -10 11 -17 11 -7 0 -16
6 -18 13 -3 7 -6 8 -6 1 -1 -13 -81 23 -108 48 -34 32 -204 183 -286 255 -45
39 -84 70 -86 67 -2 -2 9 -14 25 -26 66 -51 184 -173 179 -186 -2 -7 -1 -11 4
-7 10 5 81 -75 81 -92 0 -5 11 -24 25 -43 14 -19 23 -40 21 -47 -3 -7 -1 -13
4 -13 6 0 10 -7 10 -15 0 -8 19 -45 43 -82 63 -100 80 -143 56 -143 -7 0 -18
-8 -25 -17 -13 -17 -14 -17 -8 0 4 12 2 17 -7 15 -7 -2 -24 17 -38 42 -13 25
-31 49 -38 53 -7 4 -20 21 -28 37 -14 26 -14 30 -1 30 8 0 18 4 21 10 4 6 -1
7 -11 3 -10 -4 -15 -2 -11 4 7 11 -35 12 -44 0 -3 -5 -9 -1 -12 8 -4 9 -3 13
3 10 15 -9 12 19 -5 41 -13 18 -14 18 -9 -6 5 -24 5 -24 -10 -6 -18 22 -22 51
-6 41 15 -10 12 21 -4 34 -11 9 -15 9 -18 -1 -3 -8 -12 1 -22 20 -18 34 -12
43 10 15 12 -16 12 -15 7 7 -3 14 -12 29 -20 33 -7 4 -13 17 -13 27 0 11 -10
30 -22 43 -13 13 -43 52 -68 87 -57 81 -67 90 -85 84 -8 -4 -15 -1 -15 6 0 6
5 8 11 4 7 -4 10 -1 7 7 -3 8 -11 14 -19 14 -21 0 -55 22 -47 31 4 4 16 1 25
-7 16 -12 17 -12 6 2 -7 9 -10 19 -7 22 4 3 -6 4 -20 1 -17 -3 -33 1 -43 11
-19 19 -9 33 11 16 12 -10 14 -9 12 5 -4 23 -20 28 -45 14 -17 -9 -21 -8 -21
4 0 10 6 13 15 10 25 -10 17 4 -26 44 -54 49 -73 54 -30 8 44 -46 36 -47 -11
-1 -20 18 -32 35 -27 37 10 3 -17 48 -29 48 -4 0 -12 -10 -18 -23z m15 -491
c-17 -13 -23 -36 -9 -36 6 0 10 5 10 10 0 6 8 10 18 10 25 0 66 -45 57 -61 -5
-7 -4 -10 3 -5 16 10 27 -15 11 -26 -11 -7 -10 -8 5 -6 11 2 27 -8 39 -24 21
-28 21 -28 1 -44 -10 -8 -13 -12 -5 -8 9 4 12 3 7 -4 -4 -6 -13 -9 -21 -5 -9
3 -15 -1 -15 -8 -1 -22 -50 40 -50 62 0 11 -4 17 -10 14 -5 -3 -10 -1 -10 4 0
6 0 13 -1 15 0 3 -18 23 -39 45 -21 22 -37 46 -36 53 3 26 16 36 37 31 18 -5
19 -8 8 -17z m111 -1 c7 -8 16 -13 20 -10 5 3 12 1 15 -5 4 -6 1 -9 -7 -8 -7
2 -13 -4 -13 -12 0 -8 9 -15 20 -16 57 -3 61 -4 45 -14 -12 -7 -10 -11 11 -18
14 -6 31 -18 39 -28 13 -17 11 -16 -10 1 -19 16 -17 11 10 -28 40 -56 60 -75
60 -58 0 7 5 9 11 5 8 -4 7 -9 -2 -15 -11 -8 -10 -12 5 -24 10 -8 23 -12 29
-8 6 3 7 1 3 -6 -4 -6 -2 -18 4 -26 6 -8 8 -20 4 -26 -4 -7 -3 -9 3 -6 6 4 26
-16 44 -44 26 -41 30 -52 18 -60 -8 -5 -11 -9 -6 -10 4 -1 12 -3 17 -4 6 -1
17 -3 25 -4 8 0 15 -6 15 -12 0 -5 -4 -7 -10 -4 -13 8 -13 3 5 -36 16 -34 16
-34 10 -4 -8 39 11 22 21 -19 5 -21 4 -27 -5 -22 -6 4 -11 1 -11 -7 0 -19 -50
-68 -61 -61 -5 3 -9 -2 -9 -10 0 -18 -47 -33 -60 -20 -5 5 -11 21 -15 35 -6
24 -4 25 24 21 21 -3 33 0 37 11 9 25 -26 147 -57 192 -16 24 -29 46 -29 50 0
3 -12 23 -27 43 -18 23 -22 34 -12 30 10 -4 16 -1 16 8 0 10 -7 12 -20 8 -16
-5 -19 -3 -15 14 4 14 2 19 -7 15 -8 -3 -24 11 -38 34 -14 21 -50 65 -80 97
-50 54 -61 76 -38 76 5 0 14 -7 21 -15z m662 -223 c11 -21 10 -26 -7 -38 -10
-8 -14 -14 -9 -14 6 0 15 5 21 11 8 8 14 6 22 -8 8 -17 5 -25 -18 -47 l-29
-27 -10 30 c-6 17 -8 31 -5 31 3 0 -9 16 -27 36 -21 24 -30 43 -27 56 3 11 3
17 0 14 -8 -8 -43 43 -80 116 -8 15 -18 30 -24 33 -5 4 -9 11 -9 17 0 14 185
-179 202 -210z m-73 -307 c17 -14 25 -16 28 -7 7 19 19 14 31 -12 12 -28 5
-41 -15 -25 -8 7 -13 8 -13 1 0 -5 7 -15 15 -22 9 -7 14 -18 12 -24 -2 -6 3
-16 10 -21 15 -11 27 -53 59 -195 3 -13 9 -29 13 -35 5 -5 12 -21 16 -35 15
-50 78 -180 88 -180 5 0 7 -9 4 -20 -3 -11 -1 -18 4 -15 8 6 41 -48 37 -62 -1
-4 3 -18 10 -30 6 -12 13 -31 15 -42 2 -11 6 -24 10 -27 23 -24 -12 -48 -53
-37 -15 4 -19 11 -15 24 4 13 1 19 -8 19 -7 0 -19 11 -25 25 -8 17 -8 25 -1
25 6 0 9 8 7 18 -2 9 -10 17 -17 17 -8 0 -17 9 -22 20 -11 29 -11 37 2 29 7
-4 10 -1 7 7 -3 8 -11 13 -18 11 -7 -2 -9 5 -5 17 4 13 -13 58 -48 129 -30 60
-56 119 -60 131 -3 14 -10 19 -21 15 -9 -3 -16 -1 -16 6 0 6 5 8 11 4 7 -4 10
1 7 12 -2 11 -9 19 -16 19 -15 0 -32 24 -32 45 0 13 1 13 10 0 8 -12 10 -9 10
14 0 21 -4 27 -15 23 -16 -7 -20 -3 -29 35 -5 23 -3 26 10 21 12 -4 15 -2 12
8 -3 8 -12 13 -22 11 -9 -2 -16 4 -16 13 0 8 6 14 13 13 15 -4 14 2 -13 71
-23 59 -23 59 39 6z m118 -100 c4 -4 2 -5 -4 -1 -22 13 -14 -5 17 -37 72 -75
89 -102 67 -110 -8 -3 -5 -10 8 -21 11 -8 15 -16 8 -16 -7 0 -13 -4 -13 -9 0
-21 122 -261 130 -256 5 3 11 1 15 -5 3 -5 1 -10 -5 -10 -7 0 -10 -6 -7 -12 2
-7 9 -12 14 -11 6 1 15 -9 21 -22 7 -16 8 -25 2 -25 -18 0 -10 -22 10 -27 19
-5 25 -19 22 -55 -1 -10 3 -18 9 -18 6 0 8 -7 5 -16 -3 -8 1 -28 9 -43 8 -16
17 -42 19 -57 3 -16 12 -51 21 -79 17 -58 19 -95 5 -95 -5 0 -9 5 -7 12 1 7
-5 12 -13 13 -9 0 -20 22 -30 60 -9 33 -24 74 -33 92 -20 37 -22 59 -5 69 6 4
8 3 4 -4 -3 -6 -1 -14 5 -17 7 -5 10 0 7 11 -2 11 -11 18 -20 16 -12 -2 -24
12 -38 42 -11 25 -20 50 -20 56 0 7 -9 23 -20 37 -11 14 -20 34 -20 44 0 11
-5 19 -11 19 -7 0 -9 10 -5 25 5 18 3 24 -6 23 -16 -4 -76 118 -91 184 -7 26
-15 48 -19 48 -13 0 -9 28 5 33 7 3 5 6 -5 6 -19 1 -34 41 -25 66 4 8 2 17 -4
20 -7 5 -39 69 -39 80 0 6 30 -2 37 -10z m-1287 -30 c0 -8 4 -15 10 -15 5 0 6
-7 3 -17 -4 -11 -3 -14 5 -9 13 8 15 5 6 -18 -3 -9 -21 -25 -40 -37 -19 -11
-34 -25 -34 -29 0 -5 -11 -21 -25 -36 -13 -14 -22 -31 -18 -37 3 -5 1 -7 -5
-4 -13 9 -42 -2 -42 -15 0 -12 -184 -198 -196 -198 -5 0 0 7 10 15 11 8 15 15
10 15 -16 0 -33 -21 -28 -34 2 -6 -14 -29 -36 -51 -23 -22 -39 -33 -35 -25 3
10 -5 25 -20 38 -15 13 -25 27 -23 31 4 10 131 150 235 259 65 67 74 74 89 61
16 -13 16 -12 3 9 -8 12 -17 22 -22 22 -4 0 -5 5 -2 10 3 6 11 10 16 10 6 0 7
-5 3 -12 -5 -8 -2 -9 9 -5 9 3 19 2 22 -4 10 -16 26 1 20 21 -4 12 4 26 27 44
37 29 58 33 58 11z m1680 -284 c0 -8 12 -29 26 -48 14 -19 27 -50 29 -69 2
-20 6 -39 10 -42 5 -4 5 7 1 23 -6 30 -6 30 13 -5 10 -19 22 -53 26 -75 3 -22
14 -49 23 -60 16 -19 16 -19 -1 -6 -17 13 -17 11 -12 -30 4 -24 16 -66 27 -92
24 -59 18 -73 -7 -17 -10 22 -22 37 -26 34 -5 -3 -6 1 -3 9 3 8 1 18 -5 22
-16 9 -13 -23 9 -106 10 -41 24 -94 31 -119 6 -25 15 -54 20 -65 4 -11 13 -38
20 -60 6 -22 16 -52 21 -66 5 -14 11 -39 13 -56 3 -28 1 -30 -24 -28 -15 1
-33 5 -39 9 -7 4 -16 5 -21 1 -5 -3 -12 -1 -16 5 -3 6 3 10 15 10 13 0 20 5
17 13 -2 6 -10 11 -16 9 -14 -3 -37 45 -26 56 4 4 10 1 12 -5 3 -7 9 -13 14
-13 16 0 9 21 -15 43 -27 25 -41 97 -19 97 15 0 15 2 7 24 -3 9 -10 14 -15 11
-4 -3 -16 9 -25 26 -14 29 -15 34 -2 43 18 14 12 76 -7 76 -14 0 -25 21 -25
47 0 10 6 14 20 10 11 -3 20 -1 20 4 0 5 -5 9 -11 9 -5 0 -7 5 -4 10 3 6 -3
10 -13 10 -21 0 -46 23 -36 33 3 3 1 15 -6 26 -6 12 -13 34 -15 49 -2 15 -11
67 -19 117 -16 95 -15 116 3 64 6 -18 9 -34 6 -37 -2 -3 4 -16 15 -30 11 -13
18 -28 15 -32 -3 -4 2 -10 10 -14 8 -3 15 -15 15 -26 0 -11 7 -23 15 -26 8 -4
13 -10 10 -14 -7 -11 15 -70 26 -70 13 0 11 7 -7 35 -9 13 -13 29 -9 35 4 6
-1 21 -11 33 -16 18 -14 18 9 -2 25 -23 27 -23 26 -5 0 10 -4 28 -9 39 l-9 20
-1 -20 c-1 -17 -4 -15 -14 8 -7 15 -15 25 -18 22 -3 -4 -9 -1 -14 6 -4 7 -3
10 4 5 7 -4 10 7 9 34 -1 22 -4 40 -7 40 -14 0 -53 65 -57 94 -3 28 -2 29 12
10 8 -10 15 -25 15 -33z m-2177 -171 c16 0 67 -51 67 -67 0 -17 -22 -17 -39 0
-11 9 -11 7 0 -10 13 -22 9 -27 -64 -99 -59 -59 -82 -75 -97 -71 -18 5 -19 3
-8 -10 10 -13 8 -18 -12 -35 -14 -10 -33 -25 -42 -33 -10 -8 -26 -12 -35 -9
-14 5 -15 4 -4 -4 11 -8 -5 -28 -75 -96 -49 -47 -95 -84 -101 -81 -17 6 -16 0
1 -17 11 -12 11 -18 -5 -37 -11 -13 -19 -18 -19 -13 0 6 5 14 10 17 6 3 10 12
10 18 -1 7 -14 -3 -30 -22 -18 -21 -33 -30 -41 -26 -7 5 -27 8 -46 7 -18 -1
-33 2 -33 6 0 12 31 54 69 95 19 20 32 37 28 37 -4 0 -23 -16 -41 -35 -19 -19
-39 -35 -44 -35 -6 0 -21 -13 -34 -29 -16 -21 -37 -32 -73 -39 -27 -6 -51 -9
-53 -8 -1 2 3 16 10 30 7 17 22 29 40 33 29 6 37 18 16 26 -7 2 -10 7 -7 11
11 12 40 -6 34 -21 -4 -11 -1 -13 11 -9 8 3 21 6 28 6 7 0 41 28 75 62 46 46
64 59 70 49 6 -9 11 -10 15 -2 4 6 2 11 -3 11 -20 0 -11 17 17 36 24 16 25 16
13 1 -8 -10 -11 -20 -8 -24 4 -3 28 18 55 47 34 37 53 51 63 45 8 -5 11 -4 6
0 -12 13 73 94 91 87 9 -3 13 -1 9 5 -9 14 22 55 35 47 7 -4 8 -2 4 5 -5 7 14
34 49 68 48 48 59 55 75 46 16 -10 16 -9 6 12 -6 13 -14 21 -18 19 -10 -6 -10
10 -1 20 4 4 9 2 11 -3 2 -6 9 -11 15 -11z"/>
<path d="M6865 3365 c-338 -55 -2039 -344 -2410 -410 -316 -57 -328 -59 -333
-72 -2 -7 2 -13 8 -13 17 0 1862 307 2797 465 29 5 39 0 85 -42 l52 -48 -37
51 c-20 29 -37 59 -37 68 0 19 -13 19 -125 1z"/>
<path d="M1344 2246 c-18 -19 -44 -59 -59 -90 -29 -59 -34 -63 -52 -45 -8 8
-15 3 -27 -19 -9 -17 -16 -38 -16 -47 0 -8 -7 -15 -15 -15 -8 0 -19 -9 -25
-20 -9 -16 -8 -21 5 -25 8 -3 22 -7 30 -10 8 -2 17 0 20 4 3 5 14 7 25 4 15
-4 24 4 41 40 13 26 26 44 30 42 12 -8 19 25 13 64 -5 29 -1 42 16 61 12 14
18 18 14 10 -7 -13 -5 -13 9 -2 9 8 15 24 14 35 -1 16 3 22 16 21 10 -1 16 3
14 9 -7 21 -23 16 -53 -17z"/>
<path d="M727 1373 c-4 -3 -7 -15 -7 -25 0 -21 -11 -23 -28 -6 -9 9 -12 9 -12
-3 0 -8 5 -20 11 -26 15 -15 2 -53 -18 -53 -9 0 -22 8 -29 18 -12 16 -13 16
-14 0 0 -9 9 -20 20 -23 11 -3 20 -11 20 -17 0 -5 7 -7 16 -4 8 3 12 2 9 -4
-3 -6 -17 -10 -31 -10 -15 0 -24 -6 -24 -15 0 -20 24 -19 55 1 14 9 25 14 25
11 0 -4 12 5 26 20 30 30 46 22 17 -10 -23 -25 -36 -67 -21 -67 20 0 48 21 48
37 0 9 3 13 7 10 3 -4 11 3 17 14 6 12 22 29 36 38 25 16 25 16 -3 -19 -15
-19 -32 -45 -38 -56 -6 -12 -22 -27 -35 -33 -13 -6 -24 -17 -24 -26 0 -23 24
-18 35 7 6 12 25 27 43 33 19 6 38 19 44 29 8 14 7 17 -1 12 -20 -13 -12 10
11 30 22 19 23 19 8 -1 -8 -11 0 -7 18 9 33 30 32 38 -6 60 -67 39 -87 48
-111 52 -14 3 -27 9 -29 15 -4 10 -26 12 -35 2z"/>
<path d="M375 920 c-10 -11 -13 -20 -7 -20 7 0 12 -6 12 -13 0 -16 -32 -47
-47 -47 -6 0 -27 -14 -47 -32 -26 -23 -33 -34 -24 -40 10 -6 8 -12 -7 -23 -40
-29 -45 -36 -45 -70 0 -37 25 -51 32 -17 3 16 4 16 11 -1 5 -14 2 -20 -10 -23
-14 -4 -18 -15 -17 -52 0 -26 5 -58 11 -72 6 -14 14 -33 17 -42 7 -22 26 -24
26 -3 0 8 6 15 13 15 6 0 1 9 -12 19 -16 12 -20 20 -12 25 7 4 18 3 25 -3 10
-9 26 2 68 46 30 32 72 72 94 89 39 31 39 32 10 26 -30 -5 -73 -41 -68 -55 1
-5 -12 -7 -30 -5 -23 2 -32 7 -29 18 4 16 4 18 -5 73 -4 26 -1 45 10 62 9 13
16 31 16 40 0 8 15 29 33 46 17 17 31 35 30 38 -1 4 10 7 24 7 15 -1 28 5 30
12 3 8 -6 12 -25 12 -17 0 -37 2 -44 5 -8 3 -23 -3 -33 -15z"/>
</g>
</svg>
